<svg xmlns="http://www.w3.org/2000/svg" xmlns:xlink="http://www.w3.org/1999/xlink" width="500" zoomAndPan="magnify" viewBox="0 0 375 374.999991" height="500" preserveAspectRatio="xMidYMid meet" version="1.0"><defs><g/><clipPath id="7c70bbf040"><path d="M 37.5 136.832031 L 104.089844 136.832031 L 104.089844 203.421875 L 37.5 203.421875 Z M 37.5 136.832031 " clip-rule="nonzero"/></clipPath></defs><g clip-path="url(#7c70bbf040)"><path fill="#ffffff" d="M 105.125 170.679688 C 105.125 175.242188 104.230469 179.671875 102.464844 183.84375 C 100.761719 187.871094 98.324219 191.492188 95.21875 194.59375 C 92.117188 197.699219 88.5 200.144531 84.472656 201.847656 C 80.300781 203.613281 75.871094 204.523438 71.3125 204.523438 L 56.046875 204.523438 L 71.269531 195.929688 L 71.3125 195.929688 C 85.210938 195.929688 96.519531 184.589844 96.519531 170.6875 C 96.519531 156.789062 85.210938 145.449219 71.3125 145.449219 L 46.097656 145.449219 L 46.097656 168.570312 L 64.890625 157.941406 C 67.957031 156.199219 71.535156 155.726562 74.949219 156.605469 C 78.367188 157.488281 81.261719 159.628906 83.105469 162.640625 C 85.039062 165.792969 85.589844 169.5 84.667969 173.082031 C 83.742188 176.664062 81.464844 179.640625 78.25 181.464844 L 37.5 204.503906 L 37.5 194.617188 L 74 173.980469 C 75.167969 173.320312 76 172.234375 76.335938 170.933594 C 76.667969 169.628906 76.46875 168.28125 75.765625 167.132812 C 74.371094 164.859375 71.460938 164.105469 69.140625 165.425781 L 37.5 183.320312 L 37.5 136.855469 L 71.3125 136.855469 C 75.875 136.855469 80.304688 137.753906 84.476562 139.519531 C 88.5 141.222656 92.117188 143.664062 95.222656 146.765625 C 98.324219 149.871094 100.761719 153.488281 102.464844 157.511719 C 104.230469 161.683594 105.125 166.117188 105.125 170.679688 Z M 105.125 170.679688 " fill-opacity="1" fill-rule="nonzero"/></g><g fill="#ffffff" fill-opacity="1"><g transform="translate(105.171948, 199.267233)"><g><path d="M 4.953125 -43.9375 L 20.34375 -43.9375 L 20.34375 0 L 4.953125 0 Z M 12.640625 -48.8125 C 9.828125 -48.8125 7.554688 -49.59375 5.828125 -51.15625 C 4.097656 -52.726562 3.234375 -54.675781 3.234375 -57 C 3.234375 -59.320312 4.097656 -61.265625 5.828125 -62.828125 C 7.554688 -64.398438 9.828125 -65.1875 12.640625 -65.1875 C 15.453125 -65.1875 17.722656 -64.441406 19.453125 -62.953125 C 21.179688 -61.472656 22.046875 -59.566406 22.046875 -57.234375 C 22.046875 -54.804688 21.179688 -52.796875 19.453125 -51.203125 C 17.722656 -49.609375 15.453125 -48.8125 12.640625 -48.8125 Z M 12.640625 -48.8125 "/></g></g></g><g fill="#ffffff" fill-opacity="1"><g transform="translate(130.55044, 199.267233)"><g><path d="M 33.5625 -44.671875 C 39.019531 -44.671875 43.410156 -43.046875 46.734375 -39.796875 C 50.066406 -36.554688 51.734375 -31.671875 51.734375 -25.140625 L 51.734375 0 L 36.328125 0 L 36.328125 -22.625 C 36.328125 -28.625 33.921875 -31.625 29.109375 -31.625 C 26.460938 -31.625 24.335938 -30.757812 22.734375 -29.03125 C 21.140625 -27.300781 20.34375 -24.707031 20.34375 -21.25 L 20.34375 0 L 4.953125 0 L 4.953125 -43.9375 L 19.625 -43.9375 L 19.625 -39.15625 C 21.351562 -40.945312 23.40625 -42.3125 25.78125 -43.25 C 28.15625 -44.195312 30.75 -44.671875 33.5625 -44.671875 Z M 33.5625 -44.671875 "/></g></g></g><g fill="#ffffff" fill-opacity="1"><g transform="translate(186.98313, 199.267233)"><g><path d="M 24.890625 -15.40625 L 20.34375 -10.78125 L 20.34375 0 L 4.953125 0 L 4.953125 -60.15625 L 20.34375 -60.15625 L 20.34375 -28.625 L 36.078125 -43.9375 L 54.328125 -43.9375 L 36.078125 -25.140625 L 55.859375 0 L 37.21875 0 Z M 24.890625 -15.40625 "/></g></g></g><g fill="#ffffff" fill-opacity="1"><g transform="translate(241.469818, 199.267233)"><g><path d="M 43.21875 -11.515625 L 43.21875 0 L 2.671875 0 L 2.671875 -9.078125 L 23.03125 -32.515625 L 3.25 -32.515625 L 3.25 -43.9375 L 42.40625 -43.9375 L 42.40625 -34.9375 L 22.046875 -11.515625 Z M 43.21875 -11.515625 "/></g></g></g><g fill="#ffffff" fill-opacity="1"><g transform="translate(286.551109, 199.267233)"><g><path d="M 23.671875 -44.671875 C 30.972656 -44.671875 36.539062 -43.007812 40.375 -39.6875 C 44.21875 -36.363281 46.140625 -31.269531 46.140625 -24.40625 L 46.140625 0 L 31.78125 0 L 31.78125 -5.671875 C 29.5625 -1.398438 25.238281 0.734375 18.8125 0.734375 C 15.40625 0.734375 12.457031 0.140625 9.96875 -1.046875 C 7.488281 -2.242188 5.613281 -3.851562 4.34375 -5.875 C 3.070312 -7.90625 2.4375 -10.21875 2.4375 -12.8125 C 2.4375 -16.96875 4.03125 -20.191406 7.21875 -22.484375 C 10.40625 -24.785156 15.320312 -25.9375 21.96875 -25.9375 L 30.734375 -25.9375 C 30.460938 -30.59375 27.351562 -32.921875 21.40625 -32.921875 C 19.300781 -32.921875 17.164062 -32.582031 15 -31.90625 C 12.832031 -31.226562 10.992188 -30.296875 9.484375 -29.109375 L 4.296875 -39.5625 C 6.734375 -41.1875 9.691406 -42.441406 13.171875 -43.328125 C 16.660156 -44.222656 20.160156 -44.671875 23.671875 -44.671875 Z M 23.109375 -9 C 24.890625 -9 26.457031 -9.429688 27.8125 -10.296875 C 29.164062 -11.160156 30.140625 -12.429688 30.734375 -14.109375 L 30.734375 -17.921875 L 24.078125 -17.921875 C 19.585938 -17.921875 17.34375 -16.429688 17.34375 -13.453125 C 17.34375 -12.109375 17.859375 -11.03125 18.890625 -10.21875 C 19.921875 -9.40625 21.328125 -9 23.109375 -9 Z M 23.109375 -9 "/></g></g></g><g fill="#ffffff" fill-opacity="1"><g transform="translate(56.68519, 243.397538)"><g><path d="M 12.515625 0.421875 C 10.328125 0.421875 8.359375 -0.0390625 6.609375 -0.96875 C 4.867188 -1.90625 3.5 -3.191406 2.5 -4.828125 C 1.5 -6.460938 1 -8.304688 1 -10.359375 C 1 -12.410156 1.5 -14.253906 2.5 -15.890625 C 3.5 -17.523438 4.867188 -18.804688 6.609375 -19.734375 C 8.359375 -20.660156 10.328125 -21.125 12.515625 -21.125 C 14.703125 -21.125 16.671875 -20.660156 18.421875 -19.734375 C 20.171875 -18.804688 21.539062 -17.523438 22.53125 -15.890625 C 23.53125 -14.253906 24.03125 -12.410156 24.03125 -10.359375 C 24.03125 -8.304688 23.53125 -6.460938 22.53125 -4.828125 C 21.539062 -3.191406 20.171875 -1.90625 18.421875 -0.96875 C 16.671875 -0.0390625 14.703125 0.421875 12.515625 0.421875 Z M 12.515625 -4.4375 C 13.566406 -4.4375 14.515625 -4.679688 15.359375 -5.171875 C 16.203125 -5.671875 16.867188 -6.367188 17.359375 -7.265625 C 17.859375 -8.160156 18.109375 -9.191406 18.109375 -10.359375 C 18.109375 -11.523438 17.859375 -12.554688 17.359375 -13.453125 C 16.867188 -14.347656 16.203125 -15.039062 15.359375 -15.53125 C 14.515625 -16.03125 13.566406 -16.28125 12.515625 -16.28125 C 11.472656 -16.28125 10.523438 -16.03125 9.671875 -15.53125 C 8.828125 -15.039062 8.15625 -14.347656 7.65625 -13.453125 C 7.164062 -12.554688 6.921875 -11.523438 6.921875 -10.359375 C 6.921875 -9.191406 7.164062 -8.160156 7.65625 -7.265625 C 8.15625 -6.367188 8.828125 -5.671875 9.671875 -5.171875 C 10.523438 -4.679688 11.472656 -4.4375 12.515625 -4.4375 Z M 12.515625 -4.4375 "/></g></g></g><g fill="#ffffff" fill-opacity="1"><g transform="translate(81.722883, 243.397538)"><g><path d="M 28.375 -16.046875 L 22.671875 0 L 17.21875 0 L 14.203125 -8.734375 L 11.0625 0 L 5.625 0 L -0.09375 -16.046875 L 5.234375 -16.046875 L 8.515625 -6.328125 L 11.921875 -16.046875 L 16.71875 -16.046875 L 20.03125 -6.25 L 23.4375 -16.046875 Z M 28.375 -16.046875 "/></g></g></g><g fill="#ffffff" fill-opacity="1"><g transform="translate(110.016064, 243.397538)"><g><path d="M 12.25 -16.3125 C 14.238281 -16.3125 15.835938 -15.71875 17.046875 -14.53125 C 18.265625 -13.34375 18.875 -11.554688 18.875 -9.171875 L 18.875 0 L 13.265625 0 L 13.265625 -8.25 C 13.265625 -10.445312 12.382812 -11.546875 10.625 -11.546875 C 9.65625 -11.546875 8.878906 -11.226562 8.296875 -10.59375 C 7.710938 -9.957031 7.421875 -9.007812 7.421875 -7.75 L 7.421875 0 L 1.8125 0 L 1.8125 -16.046875 L 7.15625 -16.046875 L 7.15625 -14.296875 C 7.789062 -14.941406 8.539062 -15.4375 9.40625 -15.78125 C 10.28125 -16.132812 11.226562 -16.3125 12.25 -16.3125 Z M 12.25 -16.3125 "/></g></g></g><g fill="#ffffff" fill-opacity="1"><g transform="translate(130.614472, 243.397538)"><g/></g></g><g fill="#ffffff" fill-opacity="1"><g transform="translate(139.226718, 243.397538)"><g><path d="M 18.703125 -4.53125 L 18.703125 0 L 2.078125 0 L 2.078125 -20.71875 L 18.3125 -20.71875 L 18.3125 -16.1875 L 7.875 -16.1875 L 7.875 -12.703125 L 17.078125 -12.703125 L 17.078125 -8.3125 L 7.875 -8.3125 L 7.875 -4.53125 Z M 18.703125 -4.53125 "/></g></g></g><g fill="#ffffff" fill-opacity="1"><g transform="translate(159.055623, 243.397538)"><g><path d="M 18.703125 -16.046875 L 12.078125 0 L 6.28125 0 L -0.328125 -16.046875 L 5.4375 -16.046875 L 9.296875 -6.25 L 13.34375 -16.046875 Z M 18.703125 -16.046875 "/></g></g></g><g fill="#ffffff" fill-opacity="1"><g transform="translate(176.960844, 243.397538)"><g><path d="M 18.203125 -7.984375 C 18.203125 -7.953125 18.171875 -7.488281 18.109375 -6.59375 L 6.453125 -6.59375 C 6.691406 -5.769531 7.148438 -5.132812 7.828125 -4.6875 C 8.503906 -4.25 9.359375 -4.03125 10.390625 -4.03125 C 11.160156 -4.03125 11.828125 -4.132812 12.390625 -4.34375 C 12.953125 -4.5625 13.519531 -4.921875 14.09375 -5.421875 L 17.046875 -2.34375 C 15.484375 -0.601562 13.203125 0.265625 10.203125 0.265625 C 8.328125 0.265625 6.679688 -0.0859375 5.265625 -0.796875 C 3.847656 -1.503906 2.75 -2.488281 1.96875 -3.75 C 1.1875 -5.019531 0.796875 -6.453125 0.796875 -8.046875 C 0.796875 -9.628906 1.175781 -11.046875 1.9375 -12.296875 C 2.695312 -13.546875 3.75 -14.523438 5.09375 -15.234375 C 6.4375 -15.953125 7.945312 -16.3125 9.625 -16.3125 C 11.21875 -16.3125 12.664062 -15.976562 13.96875 -15.3125 C 15.269531 -14.65625 16.300781 -13.695312 17.0625 -12.4375 C 17.820312 -11.1875 18.203125 -9.703125 18.203125 -7.984375 Z M 9.640625 -12.3125 C 8.773438 -12.3125 8.050781 -12.0625 7.46875 -11.5625 C 6.882812 -11.070312 6.515625 -10.40625 6.359375 -9.5625 L 12.9375 -9.5625 C 12.78125 -10.40625 12.410156 -11.070312 11.828125 -11.5625 C 11.242188 -12.0625 10.515625 -12.3125 9.640625 -12.3125 Z M 9.640625 -12.3125 "/></g></g></g><g fill="#ffffff" fill-opacity="1"><g transform="translate(195.961087, 243.397538)"><g><path d="M 7.15625 -14.109375 C 7.726562 -14.847656 8.472656 -15.398438 9.390625 -15.765625 C 10.304688 -16.128906 11.359375 -16.3125 12.546875 -16.3125 L 12.546875 -11.25 C 12.035156 -11.300781 11.613281 -11.328125 11.28125 -11.328125 C 10.070312 -11.328125 9.125 -11 8.4375 -10.34375 C 7.757812 -9.695312 7.421875 -8.707031 7.421875 -7.375 L 7.421875 0 L 1.8125 0 L 1.8125 -16.046875 L 7.15625 -16.046875 Z M 7.15625 -14.109375 "/></g></g></g><g fill="#ffffff" fill-opacity="1"><g transform="translate(209.51576, 243.397538)"><g><path d="M 18.703125 -16.046875 L 11.78125 0.65625 C 10.96875 2.625 9.976562 4.003906 8.8125 4.796875 C 7.65625 5.597656 6.238281 6 4.5625 6 C 3.707031 6 2.847656 5.863281 1.984375 5.59375 C 1.128906 5.332031 0.4375 4.988281 -0.09375 4.5625 L 1.859375 0.625 C 2.179688 0.914062 2.5625 1.144531 3 1.3125 C 3.445312 1.476562 3.894531 1.5625 4.34375 1.5625 C 4.882812 1.5625 5.328125 1.453125 5.671875 1.234375 C 6.015625 1.023438 6.304688 0.679688 6.546875 0.203125 L -0.328125 -16.046875 L 5.4375 -16.046875 L 9.375 -6.25 L 13.34375 -16.046875 Z M 18.703125 -16.046875 "/></g></g></g><g fill="#ffffff" fill-opacity="1"><g transform="translate(227.864891, 243.397538)"><g/></g></g><g fill="#ffffff" fill-opacity="1"><g transform="translate(236.477137, 243.397538)"><g><path d="M 9.359375 0.421875 C 7.679688 0.421875 6.050781 0.210938 4.46875 -0.203125 C 2.882812 -0.617188 1.601562 -1.171875 0.625 -1.859375 L 2.546875 -6.1875 C 3.472656 -5.570312 4.546875 -5.078125 5.765625 -4.703125 C 6.992188 -4.328125 8.195312 -4.140625 9.375 -4.140625 C 11.625 -4.140625 12.75 -4.703125 12.75 -5.828125 C 12.75 -6.421875 12.425781 -6.859375 11.78125 -7.140625 C 11.144531 -7.429688 10.117188 -7.734375 8.703125 -8.046875 C 7.140625 -8.378906 5.832031 -8.738281 4.78125 -9.125 C 3.738281 -9.507812 2.84375 -10.125 2.09375 -10.96875 C 1.351562 -11.820312 0.984375 -12.96875 0.984375 -14.40625 C 0.984375 -15.675781 1.328125 -16.816406 2.015625 -17.828125 C 2.703125 -18.847656 3.726562 -19.648438 5.09375 -20.234375 C 6.46875 -20.828125 8.15625 -21.125 10.15625 -21.125 C 11.507812 -21.125 12.847656 -20.972656 14.171875 -20.671875 C 15.492188 -20.367188 16.660156 -19.921875 17.671875 -19.328125 L 15.859375 -14.96875 C 13.890625 -16.039062 11.976562 -16.578125 10.125 -16.578125 C 8.957031 -16.578125 8.109375 -16.398438 7.578125 -16.046875 C 7.046875 -15.703125 6.78125 -15.253906 6.78125 -14.703125 C 6.78125 -14.148438 7.09375 -13.734375 7.71875 -13.453125 C 8.351562 -13.179688 9.367188 -12.898438 10.765625 -12.609375 C 12.347656 -12.273438 13.65625 -11.914062 14.6875 -11.53125 C 15.726562 -11.144531 16.628906 -10.53125 17.390625 -9.6875 C 18.148438 -8.851562 18.53125 -7.71875 18.53125 -6.28125 C 18.53125 -5.03125 18.179688 -3.898438 17.484375 -2.890625 C 16.796875 -1.890625 15.757812 -1.085938 14.375 -0.484375 C 13 0.117188 11.328125 0.421875 9.359375 0.421875 Z M 9.359375 0.421875 "/></g></g></g><g fill="#ffffff" fill-opacity="1"><g transform="translate(255.62535, 243.397538)"><g><path d="M 12.25 -16.3125 C 14.238281 -16.3125 15.835938 -15.71875 17.046875 -14.53125 C 18.265625 -13.34375 18.875 -11.554688 18.875 -9.171875 L 18.875 0 L 13.265625 0 L 13.265625 -8.25 C 13.265625 -10.445312 12.382812 -11.546875 10.625 -11.546875 C 9.65625 -11.546875 8.878906 -11.226562 8.296875 -10.59375 C 7.710938 -9.957031 7.421875 -9.007812 7.421875 -7.75 L 7.421875 0 L 1.8125 0 L 1.8125 -21.953125 L 7.421875 -21.953125 L 7.421875 -14.5625 C 8.035156 -15.132812 8.753906 -15.566406 9.578125 -15.859375 C 10.410156 -16.160156 11.300781 -16.3125 12.25 -16.3125 Z M 12.25 -16.3125 "/></g></g></g><g fill="#ffffff" fill-opacity="1"><g transform="translate(276.460502, 243.397538)"><g><path d="M 9.859375 0.265625 C 8.140625 0.265625 6.585938 -0.0859375 5.203125 -0.796875 C 3.828125 -1.503906 2.75 -2.488281 1.96875 -3.75 C 1.1875 -5.019531 0.796875 -6.453125 0.796875 -8.046875 C 0.796875 -9.628906 1.1875 -11.050781 1.96875 -12.3125 C 2.75 -13.570312 3.820312 -14.550781 5.1875 -15.25 C 6.5625 -15.957031 8.117188 -16.3125 9.859375 -16.3125 C 11.585938 -16.3125 13.144531 -15.957031 14.53125 -15.25 C 15.914062 -14.550781 16.988281 -13.578125 17.75 -12.328125 C 18.519531 -11.078125 18.90625 -9.648438 18.90625 -8.046875 C 18.90625 -6.453125 18.519531 -5.019531 17.75 -3.75 C 16.988281 -2.488281 15.914062 -1.503906 14.53125 -0.796875 C 13.144531 -0.0859375 11.585938 0.265625 9.859375 0.265625 Z M 9.859375 -4.203125 C 10.835938 -4.203125 11.644531 -4.539062 12.28125 -5.21875 C 12.914062 -5.90625 13.234375 -6.847656 13.234375 -8.046875 C 13.234375 -9.234375 12.914062 -10.160156 12.28125 -10.828125 C 11.644531 -11.503906 10.835938 -11.84375 9.859375 -11.84375 C 8.867188 -11.84375 8.054688 -11.503906 7.421875 -10.828125 C 6.796875 -10.160156 6.484375 -9.234375 6.484375 -8.046875 C 6.484375 -6.847656 6.796875 -5.90625 7.421875 -5.21875 C 8.054688 -4.539062 8.867188 -4.203125 9.859375 -4.203125 Z M 9.859375 -4.203125 "/></g></g></g><g fill="#ffffff" fill-opacity="1"><g transform="translate(296.171016, 243.397538)"><g><path d="M 12.875 -0.65625 C 12.394531 -0.351562 11.816406 -0.125 11.140625 0.03125 C 10.460938 0.1875 9.738281 0.265625 8.96875 0.265625 C 6.875 0.265625 5.265625 -0.242188 4.140625 -1.265625 C 3.015625 -2.296875 2.453125 -3.828125 2.453125 -5.859375 L 2.453125 -11.25 L 0.125 -11.25 L 0.125 -15.453125 L 2.453125 -15.453125 L 2.453125 -19.625 L 8.078125 -19.625 L 8.078125 -15.453125 L 11.75 -15.453125 L 11.75 -11.25 L 8.078125 -11.25 L 8.078125 -5.921875 C 8.078125 -5.347656 8.226562 -4.894531 8.53125 -4.5625 C 8.84375 -4.238281 9.253906 -4.078125 9.765625 -4.078125 C 10.421875 -4.078125 10.992188 -4.25 11.484375 -4.59375 Z M 12.875 -0.65625 "/></g></g></g><g fill="#ffffff" fill-opacity="1"><g transform="translate(309.400171, 243.397538)"><g><path d="M 1.125 -20.71875 L 7.8125 -20.71875 L 6.6875 -7.546875 L 2.21875 -7.546875 Z M 4.46875 0.265625 C 3.476562 0.265625 2.664062 -0.03125 2.03125 -0.625 C 1.40625 -1.226562 1.09375 -1.96875 1.09375 -2.84375 C 1.09375 -3.726562 1.40625 -4.457031 2.03125 -5.03125 C 2.664062 -5.601562 3.476562 -5.890625 4.46875 -5.890625 C 5.457031 -5.890625 6.257812 -5.601562 6.875 -5.03125 C 7.5 -4.457031 7.8125 -3.726562 7.8125 -2.84375 C 7.8125 -1.96875 7.492188 -1.226562 6.859375 -0.625 C 6.234375 -0.03125 5.4375 0.265625 4.46875 0.265625 Z M 4.46875 0.265625 "/></g></g></g></svg>